<?xml version="1.0" standalone="no"?>
<!DOCTYPE svg PUBLIC "-//W3C//DTD SVG 20010904//EN"
 "http://www.w3.org/TR/2001/REC-SVG-20010904/DTD/svg10.dtd">
<svg version="1.0" xmlns="http://www.w3.org/2000/svg"
 width="133.000000pt" height="133.000000pt" viewBox="0 0 133.000000 133.000000"
 preserveAspectRatio="xMidYMid meet">
<metadata>
Created by potrace 1.14, written by Peter Selinger 2001-2017
</metadata>
<g transform="translate(0.000000,133.000000) scale(0.100000,-0.100000)"
fill="#000000" stroke="none">
<path d="M649 1003 c0 -10 -1 -76 -1 -148 l0 -130 -43 3 c-77 7 -114 -63 -58
-108 33 -25 85 -22 115 8 17 17 20 33 20 121 0 91 2 100 17 92 33 -18 54 -50
49 -76 -7 -35 9 -42 35 -16 33 32 33 118 1 156 -13 15 -34 33 -47 39 -12 7
-31 26 -42 43 -22 35 -45 43 -46 16z"/>
<path d="M487 563 c-3 -5 -2 -15 2 -21 9 -15 43 -4 38 12 -5 14 -33 20 -40 9z"/>
<path d="M839 550 c0 -5 -1 -45 -2 -87 -1 -62 2 -78 14 -78 11 0 15 19 17 88
2 73 0 87 -13 87 -8 0 -15 -4 -16 -10z"/>
<path d="M0 471 c0 -48 4 -83 11 -87 17 -10 29 17 23 53 -7 46 3 41 26 -12 18
-41 22 -45 40 -35 11 6 20 17 20 24 0 8 7 27 16 42 l15 29 -4 -42 c-5 -50 6
-74 25 -55 8 8 12 41 13 87 0 71 -1 75 -23 75 -22 0 -25 -3 -53 -78 -14 -39
-25 -32 -50 31 -11 28 -23 43 -38 45 -20 3 -21 -1 -21 -77z"/>
<path d="M208 493 c-4 -30 6 -91 16 -100 3 -4 30 -7 58 -7 l53 -1 1 55 c1 64
-3 80 -22 80 -10 0 -14 -13 -14 -42 0 -57 -11 -74 -38 -59 -13 7 -20 21 -20
38 1 52 -2 63 -16 63 -8 0 -16 -12 -18 -27z"/>
<path d="M370 500 c-12 -12 -18 -25 -15 -30 9 -15 62 -40 69 -33 3 4 6 1 6 -5
0 -17 -21 -25 -33 -13 -13 13 -37 15 -37 2 0 -38 73 -52 98 -19 16 22 0 58
-27 58 -27 0 -46 25 -21 27 11 1 22 -2 25 -7 3 -5 12 -7 21 -3 13 5 13 8 -2
24 -22 25 -59 24 -84 -1z"/>
<path d="M489 516 c-2 -3 -4 -26 -2 -53 1 -26 2 -56 2 -65 1 -27 31 -22 32 5
1 12 2 38 3 57 2 19 1 41 -2 48 -4 12 -24 17 -33 8z"/>
<path d="M567 507 c-23 -16 -32 -77 -15 -100 19 -25 65 -31 94 -12 13 8 24 20
24 25 0 13 -37 13 -44 1 -4 -5 -14 -8 -24 -7 -12 2 -17 12 -17 36 0 24 5 34
17 36 10 1 20 -2 24 -7 7 -12 44 -12 44 0 0 15 -42 41 -65 41 -12 0 -29 -6
-38 -13z"/>
<path d="M700 498 c-11 -12 -20 -34 -20 -48 0 -73 103 -96 130 -29 16 38 6 73
-25 87 -38 18 -62 15 -85 -10z m76 -35 c5 -19 2 -30 -10 -39 -34 -24 -66 10
-43 46 17 29 45 25 53 -7z"/>
<path d="M910 500 c-44 -44 -8 -124 54 -118 38 4 71 47 62 81 -14 57 -77 76
-116 37z m74 -33 c11 -18 0 -47 -21 -54 -12 -4 -43 23 -43 37 0 14 31 41 43
37 6 -2 15 -11 21 -20z"/>
<path d="M1056 501 c-27 -30 -18 -91 16 -111 23 -12 31 -13 48 -2 17 11 20 10
20 -7 0 -22 -35 -37 -53 -23 -25 19 -45 21 -43 5 6 -38 74 -56 111 -29 15 11
19 28 20 87 1 41 0 80 -3 87 -5 15 -32 16 -32 0 0 -9 -3 -9 -12 0 -18 18 -53
15 -72 -7z m65 -21 c24 -13 25 -46 1 -59 -34 -18 -62 23 -38 57 10 15 12 15
37 2z"/>
<path d="M1190 511 c0 -5 11 -34 25 -66 24 -53 24 -59 11 -86 -13 -27 -13 -31
0 -36 8 -3 18 -2 22 1 17 17 80 191 71 195 -21 7 -44 -28 -48 -71 -2 -21 -19
-3 -31 32 -9 27 -19 40 -32 40 -10 0 -18 -4 -18 -9z"/>
</g>
</svg>
